# xmcd CD database file
# Copyright (C) 1993-1998 Ti Kan
# 
# Track frame offsets:
#     150
#     32920
#     54900
#     71420
#     93935
#     118585
#     139062
#     161527
#     178662
# 
# Disc length: 2801 seconds
# 
# Revision: 1
# Processed by: cddbd v1.4b41PL1 Copyright (c) Steve Scherf et al.
# Submitted via: DiscPlay 4.0.4
# 
DISCID=720aef09
DTITLE=Marvin Gaye - In Our Lifetime
DYEAR=1900
DGENRE=
TTITLE0=Ego Tripping Out
TTITLE1=Praise
TTITLE2=Life Is For Learning
TTITLE3=Love Party
TTITLE4=Funk Me
TTITLE5=Far Cry
TTITLE6=Love Me Now Or Love Me Later
TTITLE7=Heavy Love Affair
TTITLE8=In Our Lifetime
EXTD=
EXTT0=
EXTT1=
EXTT2=
EXTT3=
EXTT4=
EXTT5=
EXTT6=
EXTT7=
EXTT8=
PLAYORDER=
